<?xml version="1.0" encoding="UTF-8" standalone="no"?>
<!-- Created with Inkscape (http://www.inkscape.org/) -->

<svg
   xmlns:dc="http://purl.org/dc/elements/1.1/"
   xmlns:cc="http://creativecommons.org/ns#"
   xmlns:rdf="http://www.w3.org/1999/02/22-rdf-syntax-ns#"
   xmlns:svg="http://www.w3.org/2000/svg"
   xmlns="http://www.w3.org/2000/svg"
   xmlns:sodipodi="http://sodipodi.sourceforge.net/DTD/sodipodi-0.dtd"
   xmlns:inkscape="http://www.inkscape.org/namespaces/inkscape"
   width="210mm"
   height="297mm"
   viewBox="0 0 744.09448819 1052.3622047"
   id="svg4208"
   version="1.1"
   inkscape:version="0.91 r13725"
   sodipodi:docname="octo_path.svg">
  <defs
     id="defs4210" />
  <sodipodi:namedview
     id="base"
     pagecolor="#ffffff"
     bordercolor="#666666"
     borderopacity="1.0"
     inkscape:pageopacity="0.0"
     inkscape:pageshadow="2"
     inkscape:zoom="1.4"
     inkscape:cx="244.35402"
     inkscape:cy="619.25824"
     inkscape:document-units="px"
     inkscape:current-layer="layer1"
     showgrid="false"
     inkscape:window-width="1920"
     inkscape:window-height="1138"
     inkscape:window-x="-8"
     inkscape:window-y="-8"
     inkscape:window-maximized="1" />
  <metadata
     id="metadata4213">
    <rdf:RDF>
      <cc:Work
         rdf:about="">
        <dc:format>image/svg+xml</dc:format>
        <dc:type
           rdf:resource="http://purl.org/dc/dcmitype/StillImage" />
        <dc:title></dc:title>
      </cc:Work>
    </rdf:RDF>
  </metadata>
  <g
     inkscape:label="Layer 1"
     inkscape:groupmode="layer"
     id="layer1">
    <path
       inkscape:connector-curvature="0"
       id="cat"
       d="m 451.08933,317.27288 0.28,-1.389 c -31.162,-6.231 -63.141,-6.294 -82.487,-5.49 3.178,-11.451 4.134,-24.627 4.134,-39.31999 0,-21.073 -7.917,-37.931 -20.77,-50.759 2.246,-7.25 5.246,-23.351 -2.996,-43.963 0,0 -14.541,-4.617 -47.431,17.396 -12.884,-3.22 -26.596,-4.81 -40.328,-4.81 -15.109,0 -30.376,1.924 -44.615,5.83 -33.94,-23.154 -48.923,-18.411 -48.923,-18.411 -9.78,24.457 -3.733,42.566 -1.896,47.063 -11.495,12.406 -18.513,28.243 -18.513,47.659 0,14.65799 1.669,27.80799 5.745,39.23699 -19.511,-0.71 -50.32297,-0.437 -80.37297,5.572 l 0.276,1.389 c 30.231,-6.046 61.23697,-6.256 80.62897,-5.522 0.898,2.366 1.899,4.661 3.021,6.879 -19.177,0.618 -51.92197,3.062 -83.30297,11.915 l 0.387,1.36 c 31.629,-8.918 64.65797,-11.301 83.64897,-11.882 11.458,21.358 34.048,35.152 74.236,39.484 -5.704,3.833 -11.523,10.349 -13.881,21.374 -7.773,3.718 -32.379,12.793 -47.142,-12.599 0,0 -8.264,-15.109 -24.082,-16.292 0,0 -15.34397,-0.235 -1.059,9.562 0,0 10.267,4.838 17.351,23.019 0,0 9.241,31.01 53.835,21.061 l 0,32.032 c 0,0 -0.943,11.33 -11.33,15.105 0,0 -6.137,4.249 0.475,6.606 0,0 28.792,2.361 28.792,-21.238 l 0,-34.929 c 0,0 -1.142,-13.852 5.663,-18.667 l 0,57.371 c 0,0 -0.47,13.688 -7.551,18.881 0,0 -4.723,8.494 5.663,6.137 0,0 19.824,-2.832 20.769,-25.961 l 0.449,-58.06 4.765,0 0.453,58.06 c 0.943,23.129 20.768,25.961 20.768,25.961 10.383,2.357 5.663,-6.137 5.663,-6.137 -7.08,-5.193 -7.551,-18.881 -7.551,-18.881 l 0,-56.876 c 6.801,5.296 5.663,18.171 5.663,18.171 l 0,34.929 c 0,23.6 28.793,21.238 28.793,21.238 6.606,-2.357 0.474,-6.606 0.474,-6.606 -10.386,-3.775 -11.33,-15.105 -11.33,-15.105 l 0,-45.786 c 0,-17.854 -7.518,-27.309 -14.87,-32.3 42.859,-4.25 63.426,-18.089 72.903,-39.591 18.773,0.516 52.557,2.803 84.873,11.919 l 0.384,-1.36 c -32.131,-9.063 -65.692,-11.408 -84.655,-11.96 0.898,-2.172 1.682,-4.431 2.378,-6.755 19.25,-0.8 51.38,-0.79 82.66,5.46 z"
       style="fill:none;stroke:#000000;stroke-opacity:1" />
  </g>
</svg>
